<svg xmlns="http://www.w3.org/2000/svg" viewBox="0 0 64 64" role="img" aria-label="ASD ML favicon">
  <defs>
    <linearGradient id="bg" x1="0" x2="1" y1="0" y2="1">
      <stop offset="0%" stop-color="#0f172a"/>
      <stop offset="100%" stop-color="#1d4ed8"/>
    </linearGradient>
  </defs>
  <rect width="64" height="64" rx="12" fill="url(#bg)"/>
  <rect x="10" y="10" width="44" height="44" rx="8" fill="#f8fafc" opacity="0.14"/>
  <g fill="#f8fafc">
    <rect x="15" y="14" width="7" height="7"/>
    <rect x="22" y="14" width="7" height="7"/>
    <rect x="29" y="14" width="7" height="7"/>
    <rect x="36" y="14" width="7" height="7"/>
    <rect x="15" y="21" width="7" height="7"/>
    <rect x="29" y="21" width="7" height="7"/>
    <rect x="36" y="21" width="7" height="7"/>
    <rect x="15" y="28" width="7" height="7"/>
    <rect x="22" y="28" width="7" height="7"/>
    <rect x="29" y="28" width="7" height="7"/>
    <rect x="36" y="28" width="7" height="7"/>
    <rect x="15" y="35" width="7" height="7"/>
    <rect x="22" y="35" width="7" height="7"/>
    <rect x="36" y="35" width="7" height="7"/>
    <rect x="15" y="42" width="7" height="7"/>
    <rect x="29" y="42" width="7" height="7"/>
    <rect x="36" y="42" width="7" height="7"/>
  </g>
  <text x="32" y="52" text-anchor="middle" font-size="12" font-family="Arial, Helvetica, sans-serif" font-weight="700" fill="#ffffff">4</text>
</svg>
